# xmcd
#
# Track frame offsets: 
#        150
#        12363
#        25282
#        42354
#        53955
#        66599
#        79580
#        91113
#        101945
#        114480
#        125430
#        139862
#
# Disc length: 2074 seconds
#
# Revision: 0
# Processed by: cddbd v1.5.2PL0 Copyright (c) Steve Scherf et al.
# Submitted via: ExactAudioCopy v1.1
#
DISCID=a408180c
DTITLE=The Mad Lads - The Mad, Mad, Mad, Mad, Mad Lads
DYEAR=1969
DGENRE=R&B
TTITLE0=So Nice
TTITLE1=Make Room (In Your Heart)
TTITLE2=Cry Baby
TTITLE3=I Just Can't Forget
TTITLE4=These Old Memories
TTITLE5=By The Time I Get To Phoenix
TTITLE6=No Strings Attached
TTITLE7=It's Loving Time
TTITLE8=Love Is Here Today And Gone Tomorrow
TTITLE9=Make This Young Lady Mine
TTITLE10=I've Never Found A Girl
TTITLE11=Monkey Time '69
EXTD=
EXTT0=
EXTT1=
EXTT2=
EXTT3=
EXTT4=
EXTT5=
EXTT6=
EXTT7=
EXTT8=
EXTT9=
EXTT10=
EXTT11=
PLAYORDER=
